# xmcd
#
# Track frame offsets: 
#        180
#        30021
#        60307
#        90002
#        114677
#        140319
#        179615
#        209158
#        252347
#
# Disc length: 3754 seconds
#
# Revision: 0
# Processed by: cddbd v1.4PL0 Copyright (c) Steve Scherf et al.
# Submitted via: ExactAudioCopy v0.95a4
#
DISCID=710ea809
DTITLE=Narender Chanchal - Bhawani Maa Muraden Baantati
DYEAR=1996
DGENRE=Meditative
TTITLE0=Le Lo Bhawani Maa Muradein Baantati
TTITLE1=Jis Dil Mein Maa Ka Mandir Hai
TTITLE2=O Saat Choukiyan Bharunga Tere Dware
TTITLE3=Jise Tera Bharosa
TTITLE4=Duniya Kya Kahegi Maiya
TTITLE5=Saat Sheron Wale Sone Ke Rath Pe Baithi Vaishnorani
TTITLE6=Tere Dware Hum Alakh Jagane Aaye Hain
TTITLE7=Maa Dekh Liya Sansar Duniya Matlab Ki
TTITLE8=Teri Chunri Ka Rang Hai Lal Mata
EXTD=
EXTT0=
EXTT1=
EXTT2=
EXTT3=
EXTT4=
EXTT5=
EXTT6=
EXTT7=
EXTT8=
PLAYORDER=
